<svg xmlns="http://www.w3.org/2000/svg" viewBox="0 0 192 192">
  <!-- Ghana flag background -->
  <rect width="192" height="64" fill="#CE1126"/>
  <rect y="64" width="192" height="64" fill="#FCD116"/>
  <rect y="128" width="192" height="64" fill="#006B3F"/>
  
  <!-- Black star in center -->
  <path d="M96 76 L102 94 L121 94 L106 105 L112 123 L96 112 L80 123 L86 105 L71 94 L90 94 Z" fill="#000000"/>
  
  <!-- School icon overlay -->
  <g transform="translate(96, 150)">
    <rect x="-30" y="-20" width="60" height="30" fill="white" opacity="0.9" rx="3"/>
    <path d="M-25,-15 L-25,5 M-15,-15 L-15,5 M-5,-15 L-5,5 M5,-15 L5,5 M15,-15 L15,5 M25,-15 L25,5" stroke="#CE1126" stroke-width="2"/>
    <rect x="-35" y="-30" width="70" height="12" fill="#006B3F"/>
    <text x="0" y="-20" font-family="Arial" font-size="10" fill="white" text-anchor="middle" font-weight="bold">SMS</text>
  </g>
</svg>